<svg xmlns="http://www.w3.org/2000/svg" version="1.1" viewBox="-5.0 -10.0 110.0 135.0">
 <path d="m79.375 42.113c0.27734 0 0.54297-0.10938 0.73828-0.30469 0.19531-0.19531 0.30469-0.46094 0.30469-0.73438v-3.6562c0-4.2227-3.4258-7.6484-7.6484-7.6484h-1.4141c-0.32812-7.4023-4.4688-14.109-10.941-17.723-6.4727-3.6094-14.355-3.6094-20.828 0-6.4727 3.6133-10.613 10.32-10.941 17.723h-1.4141c-4.2227 0-7.6484 3.4258-7.6484 7.6484v2.5312c0 0.57422 0.46875 1.0391 1.043 1.0391s1.043-0.46484 1.043-1.0391v-2.5312c0.003906-3.0703 2.4922-5.5586 5.5625-5.5625h45.539c3.0703 0.003906 5.5586 2.4922 5.5625 5.5625v3.6562c0 0.27344 0.10938 0.53906 0.30469 0.73438 0.19531 0.19531 0.46094 0.30469 0.73828 0.30469zm-29.375-30.656c4.9453 0.011719 9.6992 1.9141 13.281 5.3203 3.5859 3.4062 5.7266 8.0547 5.9883 12.992h-5.9258c-0.55078-6.9609-6.3594-12.328-13.344-12.328s-12.793 5.3672-13.344 12.328h-5.9258c0.26172-4.9375 2.4023-9.5859 5.9883-12.992 3.582-3.4062 8.3359-5.3086 13.281-5.3203zm11.262 18.312h-22.523c0.55859-5.8008 5.4336-10.227 11.262-10.227s10.703 4.4258 11.262 10.227zm-39.582 50.781v2.3945l-0.003907 0.003907c-0.003906 1.4766 0.57812 2.8945 1.6172 3.9453 1.043 1.0508 2.457 1.6406 3.9375 1.6484h45.539c3.0742-0.007813 5.5625-2.5 5.5625-5.5742v-1.5c0-0.57422 0.46875-1.043 1.043-1.043s1.043 0.46875 1.043 1.043v1.4805c0.003906 2.0312-0.79688 3.9805-2.2344 5.4219-1.4336 1.4414-3.3789 2.25-5.4141 2.2539h-45.539c-4.2266-0.003906-7.6484-3.4336-7.6484-7.6562v-2.3945c0-0.57812 0.46875-1.043 1.043-1.043s1.043 0.46484 1.043 1.043zm64.32-36.395h-72c-3.0078 0.003906-5.4414 2.4414-5.4492 5.4492v21.156c0.007813 3.0039 2.4414 5.4414 5.4492 5.4453h72c3.0078-0.003906 5.4414-2.4414 5.4492-5.4453v-21.156c-0.007813-3.0078-2.4414-5.4453-5.4492-5.4492zm3.3633 26.605c0 1.8555-1.5039 3.3633-3.3633 3.3633h-72c-1.8594 0-3.3633-1.5078-3.3633-3.3633v-21.156c0-1.8594 1.5039-3.3672 3.3633-3.3672h72c1.8594 0 3.3633 1.5078 3.3633 3.3672zm-54.375-13.012-3.125 2.4375 3.125 2.4375c0.33984 0.27344 0.47656 0.72656 0.33984 1.1406s-0.51953 0.69922-0.95312 0.71484c-0.23438 0-0.46094-0.078125-0.64453-0.21875l-2.4805-1.9375v2.6562c0 0.57422-0.46484 1.0391-1.043 1.0391-0.57422 0-1.0391-0.46484-1.0391-1.0391v-2.6562l-2.4805 1.9375c-0.18359 0.14062-0.41406 0.21875-0.64453 0.21875-0.32031 0-0.625-0.14453-0.82422-0.39844-0.35156-0.45312-0.26562-1.1055 0.1875-1.457l3.125-2.4375-3.125-2.4375c-0.45312-0.35156-0.53906-1.0039-0.1875-1.457 0.16797-0.22266 0.41797-0.36719 0.69531-0.40234 0.27734-0.035156 0.55469 0.042969 0.77344 0.21484l2.4805 1.9453v-2.6641c0-0.57812 0.46484-1.043 1.0391-1.043 0.57812 0 1.043 0.46484 1.043 1.043v2.668l2.4805-1.9492c0.45312-0.35938 1.1094-0.27734 1.4688 0.17578 0.35547 0.45312 0.27734 1.1133-0.17969 1.4688zm13.207 0-3.125 2.4375 3.125 2.4375h0.003907c0.33984 0.27344 0.47656 0.73438 0.33203 1.1484-0.14062 0.41797-0.53125 0.69922-0.96875 0.70703-0.23438 0-0.46094-0.078125-0.64453-0.21875l-2.4805-1.9375v2.6562c0 0.57422-0.46484 1.0391-1.043 1.0391-0.57422 0-1.0391-0.46484-1.0391-1.0391v-2.6562l-2.4883 1.9375h-0.003907c-0.44922 0.36328-1.1133 0.29297-1.4766-0.15625-0.36719-0.45312-0.29688-1.1133 0.15625-1.4805l3.125-2.4375-3.125-2.4375c-0.21875-0.16797-0.36328-0.41797-0.39453-0.69531-0.035157-0.27344 0.042968-0.55078 0.21094-0.76953 0.35547-0.45312 1.0078-0.53516 1.4648-0.17969l2.4883 1.9492v-2.668c0-0.57812 0.46484-1.043 1.043-1.043 0.57422 0 1.0391 0.46484 1.0391 1.043v2.668l2.4805-1.9492c0.45312-0.35547 1.1094-0.27344 1.4648 0.17969 0.35156 0.45703 0.26953 1.1094-0.18359 1.4648zm13.219 0-3.125 2.4375 3.125 2.4375h0.003907c0.40234 0.36719 0.45312 0.98438 0.11719 1.4141-0.33594 0.42578-0.94531 0.52344-1.3984 0.22266l-2.4883-1.9375v2.6562h-0.003907c0 0.57422-0.46484 1.0391-1.0391 1.0391-0.57812 0-1.043-0.46484-1.043-1.0391v-2.6562l-2.4375 1.9375c-0.18359 0.14062-0.41406 0.21875-0.64453 0.21875-0.44141-0.007813-0.82812-0.28906-0.96875-0.70703-0.14453-0.41406-0.011719-0.875 0.33203-1.1484l3.125-2.4375-3.125-2.4375c-0.45312-0.35547-0.53516-1.0078-0.18359-1.4648 0.35547-0.45312 1.0117-0.53516 1.4648-0.17969l2.4805 1.9492v-2.668c0-0.57812 0.46484-1.043 1.0391-1.043 0.57812 0 1.043 0.46484 1.043 1.043v2.668l2.4883-1.9492c0.45703-0.35547 1.1094-0.27344 1.4648 0.17969 0.35547 0.45703 0.27344 1.1094-0.18359 1.4648zm13.219 0-3.125 2.4375 3.125 2.4375h0.003907c0.34766 0.28125 0.48047 0.75 0.32422 1.1719-0.15234 0.41797-0.55469 0.69141-1.0039 0.68359-0.23047 0-0.46094-0.078125-0.64453-0.21875l-2.4805-1.9375v2.6562c0 0.57422-0.46484 1.0391-1.0391 1.0391-0.57812 0-1.043-0.46484-1.043-1.0391v-2.6562l-2.4805 1.9375c-0.18359 0.13672-0.41016 0.21484-0.64453 0.21875-0.44141-0.003907-0.83203-0.28516-0.97656-0.69922-0.14453-0.41797-0.011719-0.87891 0.33203-1.1562l3.125-2.4375-3.125-2.4375c-0.21875-0.17188-0.35938-0.42188-0.39453-0.69922-0.03125-0.27344 0.042968-0.55078 0.21484-0.76953 0.35938-0.45312 1.0156-0.53516 1.4688-0.17578l2.4805 1.9453v-2.6641c0-0.57812 0.46484-1.043 1.043-1.043 0.57422 0 1.0391 0.46484 1.0391 1.043v2.668l2.4805-1.9492c0.45312-0.35938 1.1133-0.27734 1.4688 0.17578s0.27734 1.1133-0.17578 1.4688z"/>
<text x="0.0" y="117.5" font-size="5.0" font-weight="bold" font-family="Arbeit Regular, Helvetica, Arial-Unicode, Arial, Sans-serif" fill="#000000">Created by Zara Alexander</text><text x="0.0" y="122.5" font-size="5.0" font-weight="bold" font-family="Arbeit Regular, Helvetica, Arial-Unicode, Arial, Sans-serif" fill="#000000">from Noun Project</text></svg>