<svg xmlns="http://www.w3.org/2000/svg" version="1.1" viewBox="-5.0 -10.0 110.0 135.0">
 <path d="m86 44.156h-72c-3.0078 0.003906-5.4414 2.4414-5.4492 5.4492v21.156c0.007813 3.0039 2.4414 5.4414 5.4492 5.4453h72c3.0078-0.003906 5.4414-2.4414 5.4492-5.4453v-21.156c-0.007813-3.0078-2.4414-5.4453-5.4492-5.4492zm-51.043 18.469c0.33984 0.26953 0.47656 0.71484 0.34766 1.1289-0.13281 0.41016-0.5 0.69922-0.92969 0.72656-0.23438 0-0.46094-0.078125-0.64453-0.21875l-2.4805-1.9375v2.6562c0 0.57422-0.46484 1.0391-1.043 1.0391-0.57422 0-1.0391-0.46484-1.0391-1.0391v-2.6562l-2.4805 1.9375c-0.18359 0.14062-0.41406 0.21875-0.64453 0.21875-0.32031 0-0.625-0.14453-0.82422-0.39844-0.35156-0.45312-0.26562-1.1055 0.1875-1.457l3.125-2.4375-3.125-2.4375c-0.45312-0.35156-0.53906-1.0039-0.1875-1.457 0.16797-0.22266 0.41797-0.36719 0.69531-0.40234 0.27734-0.035156 0.55469 0.042969 0.77344 0.21484l2.4805 1.9453v-2.6641c0-0.57812 0.46484-1.043 1.0391-1.043 0.57812 0 1.043 0.46484 1.043 1.043v2.668l2.4805-1.9492c0.45312-0.35938 1.1094-0.27734 1.4688 0.17578 0.35547 0.45312 0.27734 1.1133-0.17969 1.4688l-3.125 2.4375zm13.207 0h0.003907c0.33984 0.27344 0.47656 0.73438 0.33203 1.1484-0.14062 0.41797-0.53125 0.69922-0.96875 0.70703-0.23438 0-0.46094-0.078125-0.64453-0.21875l-2.4805-1.9375v2.6562c0 0.57422-0.46484 1.0391-1.043 1.0391-0.57422 0-1.0391-0.46484-1.0391-1.0391v-2.6562l-2.4883 1.9375h-0.003907c-0.44922 0.35547-1.1055 0.27734-1.4609-0.17188-0.35938-0.45312-0.28125-1.1094 0.17188-1.4648l3.125-2.4375-3.125-2.4375c-0.21875-0.16797-0.36328-0.41797-0.39453-0.69531-0.035157-0.27344 0.042968-0.55078 0.21094-0.76953 0.35547-0.45312 1.0078-0.53516 1.4648-0.17969l2.4883 1.9492v-2.668c0-0.57812 0.46484-1.043 1.043-1.043 0.57422 0 1.0391 0.46484 1.0391 1.043v2.668l2.4805-1.9492c0.45312-0.35547 1.1094-0.27344 1.4648 0.17969 0.35156 0.45703 0.26953 1.1094-0.18359 1.4648l-3.125 2.4375zm13.219 0h0.003907c0.40234 0.36719 0.45312 0.98438 0.11719 1.4141-0.33594 0.42578-0.94531 0.52344-1.3984 0.22266l-2.4883-1.9375v2.6562h-0.003907c0 0.57422-0.46484 1.0391-1.0391 1.0391-0.57812 0-1.043-0.46484-1.043-1.0391v-2.6562l-2.4062 1.9375c-0.18359 0.14062-0.41406 0.21875-0.64453 0.21875-0.44141-0.007813-0.82812-0.28906-0.96875-0.70703-0.14453-0.41406-0.011719-0.875 0.33203-1.1484l3.125-2.4375-3.125-2.4375c-0.45312-0.35547-0.53516-1.0078-0.18359-1.4648 0.35547-0.45312 1.0117-0.53516 1.4648-0.17969l2.4805 1.9492v-2.668c0-0.57812 0.46484-1.043 1.0391-1.043 0.57812 0 1.043 0.46484 1.043 1.043v2.668l2.4883-1.9492c0.45703-0.35547 1.1094-0.27344 1.4648 0.17969 0.35547 0.45703 0.27344 1.1094-0.18359 1.4648l-3.125 2.4375zm13.219 0h0.003907c0.34375 0.27734 0.47656 0.73828 0.33203 1.1562-0.14844 0.41406-0.53906 0.69531-0.98047 0.69922-0.23047 0-0.46094-0.078125-0.64453-0.21875l-2.4805-1.9375v2.6562c0 0.57422-0.46484 1.0391-1.0391 1.0391-0.57812 0-1.043-0.46484-1.043-1.0391v-2.6562l-2.4805 1.9375c-0.18359 0.13672-0.41016 0.21484-0.64453 0.21875-0.44141-0.003907-0.83203-0.28516-0.97656-0.69922-0.14453-0.41797-0.011719-0.87891 0.33203-1.1562l3.125-2.4375-3.125-2.4375c-0.21875-0.17188-0.35938-0.42188-0.39453-0.69922-0.03125-0.27344 0.042968-0.55078 0.21484-0.76953 0.35938-0.45312 1.0156-0.53516 1.4688-0.17578l2.4805 1.9453v-2.6641c0-0.57812 0.46484-1.043 1.043-1.043 0.57422 0 1.0391 0.46484 1.0391 1.043v2.668l2.4805-1.9492c0.45312-0.35938 1.1133-0.27734 1.4688 0.17578s0.27734 1.1133-0.17578 1.4688l-3.125 2.4375zm-55.02-20.551v-4.6562c0-4.2227 3.4258-7.6484 7.6484-7.6484h45.539c4.2227 0 7.6484 3.4258 7.6484 7.6484v4.6562zm60.836 36.219v4.6562c0.003906 2.0312-0.79688 3.9805-2.2344 5.4219-1.4336 1.4414-3.3789 2.25-5.4141 2.2539h-45.539c-4.2266-0.003906-7.6484-3.4336-7.6484-7.6562v-4.6758zm-51.574-50.605c1.0078-6.8242 5.2461-12.746 11.379-15.898 6.1367-3.1523 13.418-3.1523 19.555 0 6.1328 3.1523 10.371 9.0742 11.379 15.898h-10.293c-1.3867-4.8477-5.8203-8.1875-10.863-8.1875s-9.4766 3.3398-10.863 8.1875z"/>
<text x="0.0" y="117.5" font-size="5.0" font-weight="bold" font-family="Arbeit Regular, Helvetica, Arial-Unicode, Arial, Sans-serif" fill="#000000">Created by Zara Alexander</text><text x="0.0" y="122.5" font-size="5.0" font-weight="bold" font-family="Arbeit Regular, Helvetica, Arial-Unicode, Arial, Sans-serif" fill="#000000">from Noun Project</text></svg>